700 0 1 0           
11 SatConsumer 23 ASM 218.0.1.400 Unknown 24 Thu Aug 13 19:08:18 2015 
10 9.999999999999999547e-07 1.000000000000000036e-10 
body $-1 -1 $-1 $1 $-1 $2 #
lump $-1 -1 $-1 $-1 $3 $0 #
transform $-1 -1 1 0 0 0 1 0 0 0 1 0 0 0 1 no_rotate no_reflect no_shear #
shell $-1 -1 $-1 $-1 $-1 $4 $-1 $1 #
face $-1 -1 $-1 $5 $6 $3 $-1 $7 reversed single #
face $-1 -1 $-1 $8 $9 $3 $-1 $10 reversed single #
loop $-1 -1 $-1 $11 $12 $4 #
cone-surface $-1 -1 $-1 0.5 1.999999880790710449 0.5 0 -1 0 0.1500000000000000222 0 0 1 I I 0 1 0.1500000000000000222 forward I I I I #
face $-1 -1 $-1 $13 $14 $3 $-1 $15 reversed single #
loop $-1 -1 $-1 $16 $17 $5 #
cone-surface $-1 -1 $-1 0 1.5 0.5 1 0 0 0 0 0.1499999999999999112 1 I I 0 1 0.1499999999999999112 forward I I I I #
loop $-1 -1 $-1 $-1 $18 $4 #
coedge $-1 -1 $-1 $19 $20 $21 $22 reversed $6 $-1 #
face $-1 -1 $-1 $23 $24 $3 $-1 $25 reversed single #
loop $-1 -1 $-1 $26 $27 $8 #
cone-surface $-1 -1 $-1 0.5 1.5 0 0 0 1 -0.1499999999999999112 0 0 1 I I 0 1 0.1499999999999999112 forward I I I I #
loop $-1 -1 $-1 $-1 $28 $5 #
coedge $-1 -1 $-1 $17 $17 $29 $30 reversed $9 $-1 #
coedge $-1 -1 $-1 $18 $18 $31 $32 reversed $11 $-1 #
coedge $-1 -1 $-1 $33 $12 $28 $34 reversed $6 $-1 #
coedge $-1 -1 $-1 $12 $33 $35 $36 reversed $6 $-1 #
coedge $-1 -1 $-1 $37 $38 $12 $22 forward $39 $-1 #
edge $-1 -1 $-1 $40 2.356194490192344393 $41 3.926990816987241839 $21 $42 forward @7 unknown #
face $-1 -1 $-1 $43 $44 $3 $-1 $45 reversed single #
loop $-1 -1 $-1 $46 $47 $13 #
cone-surface $-1 -1 $-1 2 0.5 0.5 -1 0 0 0 0 -0.1500000000000000222 1 I I 0 1 0.1500000000000000222 forward I I I I #
loop $-1 -1 $-1 $-1 $48 $8 #
coedge $-1 -1 $-1 $49 $50 $33 $51 forward $14 $-1 #
coedge $-1 -1 $-1 $52 $53 $19 $34 forward $16 $-1 #
coedge $-1 -1 $-1 $29 $29 $17 $30 forward $54 $-1 #
edge $-1 -1 $-1 $55 -3.141592653589793116 $55 3.141592653589793116 $29 $56 forward @7 unknown #
coedge $-1 -1 $-1 $31 $31 $18 $32 forward $57 $-1 #
edge $-1 -1 $-1 $58 -3.141592653589793116 $58 3.141592653589793116 $31 $59 forward @7 unknown #
coedge $-1 -1 $-1 $20 $19 $27 $51 reversed $6 $-1 #
edge $-1 -1 $-1 $60 -0.7853981633974487231 $40 0.785398163397448057 $28 $61 forward @7 unknown #
coedge $-1 -1 $-1 $62 $63 $20 $36 forward $64 $-1 #
edge $-1 -1 $-1 $41 2.356194490192345281 $65 3.926990816987240951 $35 $66 forward @7 unknown #
coedge $-1 -1 $-1 $67 $21 $63 $68 reversed $39 $-1 #
coedge $-1 -1 $-1 $21 $67 $52 $69 reversed $39 $-1 #
loop $-1 -1 $-1 $70 $21 $71 #
vertex $-1 -1 $-1 $69 $72 #
vertex $-1 -1 $-1 $22 $73 #
ellipse-curve $-1 -1 $-1 0.5 1.5 0.5 -0 0.7071067811865477948 0.7071067811865472397 0 -0.1499999999999999112 0.1500000000000000222 0.7071067811865477948 I I #
face $-1 -1 $-1 $74 $75 $3 $-1 $76 reversed single #
loop $-1 -1 $-1 $77 $78 $23 #
cone-surface $-1 -1 $-1 1.5 0.5 1 0 0 -1 0.1499999999999999112 0 0 1 I I 0 1 0.1499999999999999112 forward I I I I #
loop $-1 -1 $-1 $-1 $79 $13 #
coedge $-1 -1 $-1 $80 $81 $82 $83 reversed $24 $-1 #
coedge $-1 -1 $-1 $48 $48 $84 $85 reversed $26 $-1 #
coedge $-1 -1 $-1 $86 $27 $53 $87 reversed $14 $-1 #
coedge $-1 -1 $-1 $27 $86 $62 $88 reversed $14 $-1 #
edge $-1 -1 $-1 $65 -0.7853981633974489451 $60 0.7853981633974487231 $27 $89 forward @7 unknown #
coedge $-1 -1 $-1 $90 $28 $38 $69 forward $16 $-1 #
coedge $-1 -1 $-1 $28 $90 $49 $87 forward $16 $-1 #
loop $-1 -1 $-1 $-1 $29 $91 #
vertex $-1 -1 $-1 $30 $92 #
ellipse-curve $-1 -1 $-1 1 1.5 0.5 -1 -0 -0 0 0 0.1499999999999999112 1 I I #
loop $-1 -1 $-1 $93 $31 $94 #
vertex $-1 -1 $-1 $32 $95 #
ellipse-curve $-1 -1 $-1 0.5 2 0.5 -0 -1 -0 0.1500000000000000222 0 0 1 I I #
vertex $-1 -1 $-1 $34 $96 #
ellipse-curve $-1 -1 $-1 0.5 1.5 0.5 -0.7071067811865472397 0.7071067811865477948 -0 0.1500000000000000222 0.1499999999999999112 0 0.7071067811865477948 I I #
coedge $-1 -1 $-1 $97 $35 $50 $88 forward $64 $-1 #
coedge $-1 -1 $-1 $35 $97 $37 $68 forward $64 $-1 #
loop $-1 -1 $-1 $98 $35 $99 #
vertex $-1 -1 $-1 $88 $100 #
ellipse-curve $-1 -1 $-1 0.5 1.5 0.5 0.7071067811865472397 0.7071067811865477948 0 0.1500000000000000222 -0.1499999999999999112 0 0.7071067811865477948 I I #
coedge $-1 -1 $-1 $38 $37 $101 $102 forward $39 $-1 #
edge $-1 -1 $-1 $103 -0.7853981633974467247 $41 0.7853981633974469467 $63 $104 forward @7 unknown #
edge $-1 -1 $-1 $40 2.356194490192346169 $105 3.926990816987239619 $52 $106 forward @7 unknown #
loop $-1 -1 $-1 $-1 $107 $71 #
face $-1 -1 $-1 $99 $39 $3 $-1 $15 reversed single #
point $-1 -1 $-1 0.6060660171779821415 1.606066017177981919 0.393933982822017914 #
point $-1 -1 $-1 0.393933982822017803 1.606066017177981919 0.393933982822017914 #
face $-1 -1 $-1 $108 $109 $3 $-1 $110 reversed single #
loop $-1 -1 $-1 $111 $112 $43 #
cone-surface $-1 -1 $-1 1.5 0.999999940395357001 0.5 0 -1 0 0.1499999999999999112 0 0 1 I I 0 1 0.1499999999999999112 forward I I I I #
loop $-1 -1 $-1 $-1 $113 $23 #
coedge $-1 -1 $-1 $78 $78 $114 $115 reversed $44 $-1 #
coedge $-1 -1 $-1 $79 $79 $116 $117 reversed $46 $-1 #
coedge $-1 -1 $-1 $118 $47 $113 $119 reversed $24 $-1 #
coedge $-1 -1 $-1 $47 $118 $120 $121 reversed $24 $-1 #
coedge $-1 -1 $-1 $122 $123 $47 $83 forward $124 $-1 #
edge $-1 -1 $-1 $125 2.356194490192343949 $126 3.926990816987241839 $82 $127 forward @7 unknown #
coedge $-1 -1 $-1 $84 $84 $48 $85 forward $128 $-1 #
edge $-1 -1 $-1 $129 -3.141592653589793116 $129 3.141592653589793116 $84 $130 forward @7 unknown #
coedge $-1 -1 $-1 $50 $49 $131 $132 forward $14 $-1 #
edge $-1 -1 $-1 $133 2.356194490192347946 $60 3.926990816987240063 $53 $134 forward @7 unknown #
edge $-1 -1 $-1 $65 -0.7853981633974469467 $135 0.7853981633974469467 $62 $136 forward @7 unknown #
ellipse-curve $-1 -1 $-1 0.5 1.5 0.5 -0 0.7071067811865477948 -0.7071067811865472397 -0 0.1499999999999999112 0.1500000000000000222 0.7071067811865477948 I I #
coedge $-1 -1 $-1 $53 $52 $137 $138 forward $16 $-1 #
face $-1 -1 $-1 $139 $140 $3 $-1 $141 forward single #
point $-1 -1 $-1 1 1.5 0.3500000000000000888 #
loop $-1 -1 $-1 $-1 $142 $94 #
face $-1 -1 $-1 $143 $57 $3 $-1 $144 forward single #
point $-1 -1 $-1 0.3499999999999999778 1.999999880790710449 0.5 #
point $-1 -1 $-1 0.6060660171779821415 1.606066017177981919 0.6060660171779821415 #
coedge $-1 -1 $-1 $63 $62 $145 $146 forward $64 $-1 #
loop $-1 -1 $-1 $-1 $147 $99 #
face $-1 -1 $-1 $148 $64 $3 $-1 $10 reversed single #
point $-1 -1 $-1 0.393933982822017803 1.606066017177981919 0.6060660171779821415 #
coedge $-1 -1 $-1 $145 $137 $67 $102 reversed $149 $-1 #
edge $-1 -1 $-1 $103 2.356194490192343505 $105 3.926990816987242283 $67 $150 forward @7 unknown #
vertex $-1 -1 $-1 $68 $151 #
ellipse-curve $-1 -1 $-1 0.5 1.5 0.5 0.7071067811865473507 -0 -0.7071067811865477948 -0.1499999999999999112 0 -0.1499999999999998002 0.7071067811865477948 I I #
vertex $-1 -1 $-1 $102 $152 #
ellipse-curve $-1 -1 $-1 0.5 1.5 0.5 -0.7071067811865473507 -0 -0.7071067811865477948 -0.1499999999999999112 0 0.1499999999999998002 0.7071067811865477948 I I #
coedge $-1 -1 $-1 $107 $107 $153 $154 reversed $70 $-1 #
face $-1 -1 $-1 $155 $156 $3 $-1 $157 reversed single #
loop $-1 -1 $-1 $158 $159 $74 #
cone-surface $-1 -1 $-1 0.5 0.5 2 0 0 -1 0.1499999999999999112 0 0 1 I I 0 1 0.1499999999999999112 forward I I I I #
loop $-1 -1 $-1 $-1 $160 $43 #
coedge $-1 -1 $-1 $161 $162 $118 $163 forward $75 $-1 #
coedge $-1 -1 $-1 $164 $165 $80 $119 forward $77 $-1 #
coedge $-1 -1 $-1 $114 $114 $78 $115 forward $166 $-1 #
edge $-1 -1 $-1 $167 -3.141592653589793116 $167 3.141592653589793116 $114 $168 forward @7 unknown #
coedge $-1 -1 $-1 $116 $116 $79 $117 forward $169 $-1 #
edge $-1 -1 $-1 $170 -3.141592653589793116 $170 3.141592653589793116 $116 $171 forward @7 unknown #
coedge $-1 -1 $-1 $81 $80 $112 $163 reversed $24 $-1 #
edge $-1 -1 $-1 $172 -0.7853981633974492782 $125 0.785398163397448057 $113 $173 forward @7 unknown #
coedge $-1 -1 $-1 $174 $175 $81 $121 forward $176 $-1 #
edge $-1 -1 $-1 $126 2.356194490192345281 $177 3.926990816987242283 $120 $178 forward @7 unknown #
coedge $-1 -1 $-1 $179 $82 $175 $180 reversed $124 $-1 #
coedge $-1 -1 $-1 $82 $179 $164 $181 reversed $124 $-1 #
loop $-1 -1 $-1 $182 $82 $183 #
vertex $-1 -1 $-1 $181 $184 #
vertex $-1 -1 $-1 $83 $185 #
ellipse-curve $-1 -1 $-1 1.5 0.5 0.5 0.7071067811865477948 -0.7071067811865472397 -0 -0.1499999999999999112 -0.1500000000000000222 0 0.7071067811865477948 I I #
loop $-1 -1 $-1 $-1 $84 $139 #
vertex $-1 -1 $-1 $85 $186 #
ellipse-curve $-1 -1 $-1 0.5 1.5 1 -0 0 -1 -0.1499999999999999112 0 0 1 I I #
coedge $-1 -1 $-1 $137 $145 $86 $132 reversed $149 $-1 #
edge $-1 -1 $-1 $133 -0.7853981633974495002 $135 0.7853981633974495002 $86 $187 forward @7 unknown #
vertex $-1 -1 $-1 $87 $188 #
ellipse-curve $-1 -1 $-1 0.5 1.5 0.5 -0.7071067811865473507 0 0.7071067811865477948 -0.1499999999999999112 0 -0.1499999999999998002 0.7071067811865477948 I I #
vertex $-1 -1 $-1 $146 $189 #
ellipse-curve $-1 -1 $-1 0.5 1.5 0.5 0.7071067811865473507 0 0.7071067811865477948 -0.1499999999999999112 0 0.1499999999999998002 0.7071067811865477948 I I #
coedge $-1 -1 $-1 $101 $131 $90 $138 reversed $149 $-1 #
edge $-1 -1 $-1 $105 -0.7853981633974489451 $133 0.7853981633974495002 $90 $190 forward @7 unknown #
face $-1 -1 $-1 $191 $192 $3 $-1 $193 forward single #
loop $-1 -1 $-1 $54 $194 $91 #
plane-surface $-1 -1 $-1 1 1 1 1 0 0 -0 -0 -1 forward_v I I I I #
coedge $-1 -1 $-1 $195 $196 $197 $198 reversed $93 $-1 #
face $-1 -1 $-1 $199 $200 $3 $-1 $201 forward single #
plane-surface $-1 -1 $-1 0.5 2 0.5 0 1 0 1 0 0 forward_v I I I I #
coedge $-1 -1 $-1 $131 $101 $97 $146 reversed $149 $-1 #
edge $-1 -1 $-1 $135 2.356194490192343949 $103 3.926990816987241839 $97 $202 forward @7 unknown #
coedge $-1 -1 $-1 $147 $147 $203 $204 reversed $98 $-1 #
face $-1 -1 $-1 $205 $176 $3 $-1 $45 reversed single #
loop $-1 -1 $-1 $206 $101 $191 #
ellipse-curve $-1 -1 $-1 0.5 1.5 0.5 0 -0.7071067811865477948 0.7071067811865472397 -0 0.1499999999999999112 0.1500000000000000222 0.7071067811865477948 I I #
point $-1 -1 $-1 0.393933982822017803 1.393933982822018303 0.393933982822017914 #
point $-1 -1 $-1 0.6060660171779821415 1.393933982822018303 0.393933982822017914 #
coedge $-1 -1 $-1 $153 $153 $107 $154 forward $207 $-1 #
edge $-1 -1 $-1 $208 -3.141592653589793116 $208 3.141592653589793116 $153 $209 forward @7 unknown #
face $-1 -1 $-1 $210 $211 $3 $-1 $212 reversed single #
loop $-1 -1 $-1 $213 $214 $108 #
cone-surface $-1 -1 $-1 0.9999999403953534483 0.5 1.5 -1 0 0 0 0 -0.1500000000000001332 1 I I 0 1 0.1500000000000001332 forward I I I I #
loop $-1 -1 $-1 $-1 $215 $74 #
coedge $-1 -1 $-1 $216 $217 $218 $219 reversed $109 $-1 #
coedge $-1 -1 $-1 $160 $160 $220 $221 reversed $111 $-1 #
coedge $-1 -1 $-1 $222 $112 $165 $223 reversed $75 $-1 #
coedge $-1 -1 $-1 $112 $222 $174 $224 reversed $75 $-1 #
edge $-1 -1 $-1 $177 -0.7853981633974492782 $172 0.7853981633974495002 $112 $225 forward @7 unknown #
coedge $-1 -1 $-1 $226 $113 $123 $181 forward $77 $-1 #
coedge $-1 -1 $-1 $113 $226 $161 $223 forward $77 $-1 #
loop $-1 -1 $-1 $-1 $114 $199 #
vertex $-1 -1 $-1 $115 $227 #
ellipse-curve $-1 -1 $-1 1.5 0.5 0 -0 -0 1 0.1499999999999999112 0 0 1 I I #
loop $-1 -1 $-1 $228 $116 $205 #
vertex $-1 -1 $-1 $117 $229 #
ellipse-curve $-1 -1 $-1 2 0.5 0.5 -1 -0 -0 0 0 -0.1500000000000000222 1 I I #
vertex $-1 -1 $-1 $119 $230 #
ellipse-curve $-1 -1 $-1 1.5 0.5 0.5 0.7071067811865477948 -0 0.7071067811865472397 0.1499999999999999112 0 -0.1500000000000000222 0.7071067811865477948 I I #
coedge $-1 -1 $-1 $231 $120 $162 $224 forward $176 $-1 #
coedge $-1 -1 $-1 $120 $231 $122 $180 forward $176 $-1 #
loop $-1 -1 $-1 $232 $120 $148 #
vertex $-1 -1 $-1 $224 $233 #
ellipse-curve $-1 -1 $-1 1.5 0.5 0.5 0.7071067811865477948 -0 -0.7071067811865472397 -0.1499999999999999112 0 -0.1500000000000000222 0.7071067811865477948 I I #
coedge $-1 -1 $-1 $123 $122 $234 $235 forward $124 $-1 #
edge $-1 -1 $-1 $236 -0.7853981633974488341 $126 0.7853981633974471688 $175 $237 forward @7 unknown #
edge $-1 -1 $-1 $125 2.356194490192346169 $238 3.926990816987241839 $164 $239 forward @7 unknown #
loop $-1 -1 $-1 $-1 $240 $183 #
face $-1 -1 $-1 $241 $124 $3 $-1 $76 reversed single #
point $-1 -1 $-1 1.606066017177981919 0.6060660171779820304 0.393933982822017803 #
point $-1 -1 $-1 1.606066017177981919 0.6060660171779820304 0.6060660171779821415 #
point $-1 -1 $-1 0.6499999999999999112 1.5 1 #
ellipse-curve $-1 -1 $-1 0.5 1.5 0.5 0 -0.7071067811865477948 -0.7071067811865472397 0 -0.1499999999999999112 0.1500000000000000222 0.7071067811865477948 I I #
point $-1 -1 $-1 0.6060660171779821415 1.393933982822018303 0.6060660171779821415 #
point $-1 -1 $-1 0.393933982822017803 1.393933982822018303 0.6060660171779821415 #
ellipse-curve $-1 -1 $-1 0.5 1.5 0.5 -0.7071067811865472397 -0.7071067811865477948 -0 0.1500000000000000222 -0.1499999999999999112 0 0.7071067811865477948 I I #
face $-1 -1 $-1 $242 $149 $3 $-1 $243 reversed single #
loop $-1 -1 $-1 $128 $197 $139 #
plane-surface $-1 -1 $-1 0 1 1 0 -0 1 1 -0 -0 forward_v I I I I #
coedge $-1 -1 $-1 $244 $245 $195 $246 forward $140 $-1 #
coedge $-1 -1 $-1 $247 $142 $194 $246 reversed $93 $-1 #
coedge $-1 -1 $-1 $142 $247 $248 $249 reversed $93 $-1 #
coedge $-1 -1 $-1 $250 $251 $142 $198 forward $192 $-1 #
edge $-1 -1 $-1 $252 -0.25 $253 0.75 $197 $254 forward @7 unknown #
face $-1 -1 $-1 $255 $256 $3 $-1 $257 forward single #
loop $-1 -1 $-1 $258 $259 $143 #
plane-surface $-1 -1 $-1 0.5 0.5 2 0 0 1 1 0 0 forward_v I I I I #
ellipse-curve $-1 -1 $-1 0.5 1.5 0.5 0.7071067811865472397 -0.7071067811865477948 0 0.1500000000000000222 0.1499999999999999112 0 0.7071067811865477948 I I #
coedge $-1 -1 $-1 $203 $203 $147 $204 forward $260 $-1 #
edge $-1 -1 $-1 $261 -3.141592653589793116 $261 3.141592653589793116 $203 $262 forward @7 unknown #
face $-1 -1 $-1 $94 $169 $3 $-1 $263 forward single #
loop $-1 -1 $-1 $-1 $264 $191 #
loop $-1 -1 $-1 $166 $153 $199 #
vertex $-1 -1 $-1 $154 $265 #
ellipse-curve $-1 -1 $-1 0.5 1.5 0 -0 -0 1 -0.1499999999999999112 0 0 1 I I #
face $-1 -1 $-1 $266 $267 $3 $-1 $268 forward single #
loop $-1 -1 $-1 $269 $270 $155 #
cone-surface $-1 -1 $-1 0.5 0.999999940395357001 1.5 0 -1 0 0.1500000000000000222 0 0 1 I I 0 1 0.1500000000000000222 forward I I I I #
loop $-1 -1 $-1 $-1 $271 $108 #
coedge $-1 -1 $-1 $214 $214 $272 $273 reversed $156 $-1 #
coedge $-1 -1 $-1 $215 $215 $259 $274 reversed $158 $-1 #
coedge $-1 -1 $-1 $275 $159 $271 $276 reversed $109 $-1 #
coedge $-1 -1 $-1 $159 $275 $277 $278 reversed $109 $-1 #
coedge $-1 -1 $-1 $279 $280 $159 $219 forward $281 $-1 #
edge $-1 -1 $-1 $282 2.356194490192345281 $283 3.926990816987240951 $218 $284 forward @7 unknown #
coedge $-1 -1 $-1 $220 $220 $160 $221 forward $285 $-1 #
edge $-1 -1 $-1 $286 -3.141592653589793116 $286 3.141592653589793116 $220 $287 forward @7 unknown #
coedge $-1 -1 $-1 $162 $161 $288 $289 forward $75 $-1 #
edge $-1 -1 $-1 $290 2.356194490192346169 $172 3.926990816987239619 $165 $291 forward @7 unknown #
edge $-1 -1 $-1 $177 -0.7853981633974469467 $292 0.7853981633974471688 $174 $293 forward @7 unknown #
ellipse-curve $-1 -1 $-1 1.5 0.5 0.5 0.7071067811865477948 0.7071067811865472397 0 0.1499999999999999112 -0.1500000000000000222 0 0.7071067811865477948 I I #
coedge $-1 -1 $-1 $165 $164 $294 $295 forward $77 $-1 #
point $-1 -1 $-1 1.350000000000000089 0.5 0 #
loop $-1 -1 $-1 $-1 $296 $205 #
point $-1 -1 $-1 2 0.5 0.6500000000000000222 #
point $-1 -1 $-1 1.606066017177981697 0.3939339828220178585 0.393933982822017803 #
coedge $-1 -1 $-1 $175 $174 $297 $298 forward $176 $-1 #
loop $-1 -1 $-1 $-1 $299 $148 #
point $-1 -1 $-1 1.606066017177981697 0.3939339828220178585 0.6060660171779821415 #
coedge $-1 -1 $-1 $297 $294 $179 $235 reversed $300 $-1 #
edge $-1 -1 $-1 $236 2.356194490192345281 $238 3.926990816987240951 $179 $301 forward @7 unknown #
vertex $-1 -1 $-1 $180 $302 #
ellipse-curve $-1 -1 $-1 1.5 0.4999999999999999445 0.5 -0 0.7071067811865477948 -0.7071067811865473507 -0 0.1499999999999998002 0.1499999999999999112 0.7071067811865477948 I I #
vertex $-1 -1 $-1 $235 $303 #
ellipse-curve $-1 -1 $-1 1.5 0.4999999999999999445 0.5 0 0.7071067811865477948 0.7071067811865473507 0 -0.1499999999999998002 0.1499999999999999112 0.7071067811865477948 I I #
coedge $-1 -1 $-1 $240 $240 $304 $305 reversed $182 $-1 #
face $-1 -1 $-1 $71 $306 $3 $-1 $157 reversed single #
face $-1 -1 $-1 $307 $308 $3 $-1 $243 reversed single #
cone-surface $-1 -1 $-1 0.5 0 0.5 0 1 0 0.1500000000000000222 0 0 1 I I 0 1 0.1500000000000000222 forward I I I I #
coedge $-1 -1 $-1 $309 $194 $251 $310 reversed $140 $-1 #
coedge $-1 -1 $-1 $194 $309 $311 $312 forward $140 $-1 #
edge $-1 -1 $-1 $313 -1.25 $252 -0.25 $194 $314 forward @7 unknown #
coedge $-1 -1 $-1 $196 $195 $315 $316 reversed $93 $-1 #
coedge $-1 -1 $-1 $317 $318 $196 $249 forward $319 $-1 #
edge $-1 -1 $-1 $253 -0.25 $320 0.75 $248 $321 forward @7 unknown #
coedge $-1 -1 $-1 $322 $197 $318 $323 reversed $192 $-1 #
coedge $-1 -1 $-1 $197 $322 $244 $310 forward $192 $-1 #
vertex $-1 -1 $-1 $198 $324 #
vertex $-1 -1 $-1 $249 $325 #
straight-curve $-1 -1 $-1 0.75 2 1 -1 0 0 I I #
face $-1 -1 $-1 $326 $327 $3 $-1 $328 forward single #
loop $-1 -1 $-1 $329 $330 $199 #
plane-surface $-1 -1 $-1 3 0 0 0 0 -1 -1 -0 -0 forward_v I I I I #
loop $-1 -1 $-1 $-1 $331 $143 #
coedge $-1 -1 $-1 $259 $259 $215 $274 forward $200 $-1 #
loop $-1 -1 $-1 $332 $203 $210 #
vertex $-1 -1 $-1 $204 $333 #
ellipse-curve $-1 -1 $-1 0 1.5 0.5 1 -0 -0 0 0 0.1499999999999999112 1 I I #
plane-surface $-1 -1 $-1 2 0.5 0.5 1 0 0 0 0 -1 forward_v I I I I #
coedge $-1 -1 $-1 $334 $335 $336 $337 reversed $206 $-1 #
point $-1 -1 $-1 0.6499999999999999112 1.5 0 #
face $-1 -1 $-1 $338 $339 $3 $-1 $340 forward single #
loop $-1 -1 $-1 $260 $341 $210 #
plane-surface $-1 -1 $-1 0 0 0 -1 0 0 -0 -0 1 forward_v I I I I #
loop $-1 -1 $-1 $-1 $342 $155 #
coedge $-1 -1 $-1 $343 $344 $275 $345 forward $211 $-1 #
coedge $-1 -1 $-1 $346 $347 $216 $276 forward $213 $-1 #
coedge $-1 -1 $-1 $272 $272 $214 $273 forward $348 $-1 #
edge $-1 -1 $-1 $349 -3.141592653589793116 $349 3.141592653589793116 $272 $350 forward @7 unknown #
edge $-1 -1 $-1 $351 -3.141592653589793116 $351 3.141592653589793116 $259 $352 forward @7 unknown #
coedge $-1 -1 $-1 $217 $216 $270 $345 reversed $109 $-1 #
edge $-1 -1 $-1 $353 -0.7853981633974488341 $282 0.785398163397448279 $271 $354 forward @7 unknown #
coedge $-1 -1 $-1 $355 $356 $217 $278 forward $306 $-1 #
edge $-1 -1 $-1 $283 2.356194490192344393 $357 3.926990816987241839 $277 $358 forward @7 unknown #
coedge $-1 -1 $-1 $359 $218 $356 $360 reversed $281 $-1 #
coedge $-1 -1 $-1 $218 $359 $346 $361 reversed $281 $-1 #
loop $-1 -1 $-1 $362 $218 $363 #
vertex $-1 -1 $-1 $361 $364 #
vertex $-1 -1 $-1 $219 $365 #
ellipse-curve $-1 -1 $-1 0.5 0.5 1.5 -0 -0.7071067811865475727 0.7071067811865475727 0 -0.1499999999999999112 -0.1499999999999999112 0.7071067811865475727 I I #
loop $-1 -1 $-1 $-1 $220 $326 #
vertex $-1 -1 $-1 $221 $366 #
ellipse-curve $-1 -1 $-1 1.5 0 0.5 0 1 0 0.1499999999999999112 0 0 1 I I #
coedge $-1 -1 $-1 $294 $297 $222 $289 reversed $300 $-1 #
edge $-1 -1 $-1 $290 -0.7853981633974489451 $292 0.7853981633974487231 $222 $367 forward @7 unknown #
vertex $-1 -1 $-1 $223 $368 #
ellipse-curve $-1 -1 $-1 1.5 0.4999999999999999445 0.5 0 -0.7071067811865477948 0.7071067811865473507 -0 0.1499999999999998002 0.1499999999999999112 0.7071067811865477948 I I #
vertex $-1 -1 $-1 $298 $369 #
ellipse-curve $-1 -1 $-1 1.5 0.4999999999999999445 0.5 -0 -0.7071067811865477948 -0.7071067811865473507 0 -0.1499999999999998002 0.1499999999999999112 0.7071067811865477948 I I #
coedge $-1 -1 $-1 $234 $288 $226 $295 reversed $300 $-1 #
edge $-1 -1 $-1 $238 -0.7853981633974473908 $290 0.785398163397448057 $226 $370 forward @7 unknown #
coedge $-1 -1 $-1 $371 $372 $373 $374 reversed $228 $-1 #
coedge $-1 -1 $-1 $288 $234 $231 $298 reversed $300 $-1 #
edge $-1 -1 $-1 $292 2.356194490192344393 $236 3.926990816987240507 $231 $375 forward @7 unknown #
coedge $-1 -1 $-1 $299 $299 $376 $377 reversed $232 $-1 #
loop $-1 -1 $-1 $378 $234 $379 #
ellipse-curve $-1 -1 $-1 1.5 0.5 0.5 -0.7071067811865477948 -0.7071067811865472397 -0 0.1499999999999999112 -0.1500000000000000222 0 0.7071067811865477948 I I #
point $-1 -1 $-1 1.393933982822017859 0.6060660171779820304 0.6060660171779821415 #
point $-1 -1 $-1 1.393933982822017859 0.6060660171779820304 0.393933982822017803 #
coedge $-1 -1 $-1 $304 $304 $240 $305 forward $380 $-1 #
edge $-1 -1 $-1 $381 -3.141592653589793116 $381 3.141592653589793116 $304 $382 forward @7 unknown #
loop $-1 -1 $-1 $383 $277 $241 #
face $-1 -1 $-1 $379 $384 $3 $-1 $385 reversed single #
loop $-1 -1 $-1 $386 $387 $242 #
coedge $-1 -1 $-1 $245 $244 $388 $389 reversed $140 $-1 #
edge $-1 -1 $-1 $390 0 $252 1 $251 $391 forward @7 unknown #
coedge $-1 -1 $-1 $392 $315 $245 $312 reversed $256 $-1 #
edge $-1 -1 $-1 $393 0 $313 1 $245 $394 forward @7 unknown #
vertex $-1 -1 $-1 $316 $395 #
straight-curve $-1 -1 $-1 1 2 1.25 0 0 1 I I #
coedge $-1 -1 $-1 $311 $396 $247 $316 forward $256 $-1 #
edge $-1 -1 $-1 $320 -2.25 $313 -1.25 $315 $397 forward @7 unknown #
coedge $-1 -1 $-1 $398 $248 $396 $399 reversed $319 $-1 #
coedge $-1 -1 $-1 $248 $400 $250 $323 forward $319 $-1 #
loop $-1 -1 $-1 $-1 $401 $210 #
vertex $-1 -1 $-1 $249 $402 #
straight-curve $-1 -1 $-1 0 2 0.75 0 0 -1 I I #
coedge $-1 -1 $-1 $251 $250 $403 $404 reversed $192 $-1 #
edge $-1 -1 $-1 $405 0 $253 1 $250 $406 forward @7 unknown #
point $-1 -1 $-1 1 2 1 #
point $-1 -1 $-1 0 2 1 #
face $-1 -1 $-1 $-1 $407 $3 $-1 $408 reversed single #
loop $-1 -1 $-1 $348 $409 $255 #
plane-surface $-1 -1 $-1 1 0 3 1 -0 0 0 0 -1 forward_v I I I I #
loop $-1 -1 $-1 $207 $410 $199 #
coedge $-1 -1 $-1 $411 $392 $371 $412 forward $256 $-1 #
coedge $-1 -1 $-1 $413 $414 $415 $416 reversed $258 $-1 #
loop $-1 -1 $-1 $319 $417 $210 #
point $-1 -1 $-1 0 1.5 0.3500000000000000888 #
coedge $-1 -1 $-1 $418 $264 $419 $420 reversed $206 $-1 #
coedge $-1 -1 $-1 $264 $418 $421 $422 reversed $206 $-1 #
coedge $-1 -1 $-1 $423 $424 $264 $337 forward $425 $-1 #
edge $-1 -1 $-1 $426 2.356194490192344837 $427 3.926990816987241395 $336 $428 forward @7 unknown #
face $-1 -1 $-1 $429 $430 $3 $-1 $431 forward single #
loop $-1 -1 $-1 $432 $433 $266 #
plane-surface $-1 -1 $-1 1.5 1 1.5 0 1 0 1 0 0 forward_v I I I I #
coedge $-1 -1 $-1 $341 $341 $434 $435 forward $267 $-1 #
coedge $-1 -1 $-1 $342 $342 $436 $437 reversed $269 $-1 #
coedge $-1 -1 $-1 $438 $270 $347 $439 reversed $211 $-1 #
coedge $-1 -1 $-1 $270 $438 $355 $440 reversed $211 $-1 #
edge $-1 -1 $-1 $357 -0.7853981633974478349 $353 0.7853981633974478349 $270 $441 forward @7 unknown #
coedge $-1 -1 $-1 $442 $271 $280 $361 forward $213 $-1 #
coedge $-1 -1 $-1 $271 $442 $343 $439 forward $213 $-1 #
loop $-1 -1 $-1 $-1 $272 $255 #
vertex $-1 -1 $-1 $273 $443 #
ellipse-curve $-1 -1 $-1 1 0.5 1.5 -1 0 -0 0 0 -0.1500000000000001332 1 I I #
vertex $-1 -1 $-1 $274 $444 #
ellipse-curve $-1 -1 $-1 0.5 0.5 2 -0 -0 -1 0.1499999999999999112 0 0 1 I I #
vertex $-1 -1 $-1 $276 $445 #
ellipse-curve $-1 -1 $-1 0.5 0.5 1.5 -0.7071067811865480168 -0 0.7071067811865471286 0.1499999999999999112 0 0.1500000000000001055 0.7071067811865471286 I I #
coedge $-1 -1 $-1 $446 $277 $344 $440 forward $306 $-1 #
coedge $-1 -1 $-1 $277 $446 $279 $360 forward $306 $-1 #
vertex $-1 -1 $-1 $440 $447 #
ellipse-curve $-1 -1 $-1 0.5 0.5 1.5 0.7071067811865480168 0 0.7071067811865471286 0.1499999999999999112 0 -0.1500000000000001055 0.7071067811865471286 I I #
coedge $-1 -1 $-1 $280 $279 $448 $449 forward $281 $-1 #
edge $-1 -1 $-1 $450 2.356194490192343505 $283 3.926990816987241395 $356 $451 forward @7 unknown #
edge $-1 -1 $-1 $282 -0.78539816339744839 $452 0.78539816339744839 $346 $453 forward @7 unknown #
loop $-1 -1 $-1 $-1 $454 $363 #
face $-1 -1 $-1 $183 $281 $3 $-1 $212 reversed single #
point $-1 -1 $-1 0.6060660171779820304 0.6060660171779820304 1.606066017177982141 #
point $-1 -1 $-1 0.3939339828220179696 0.6060660171779820304 1.606066017177982141 #
point $-1 -1 $-1 1.350000000000000089 -5.96046429990337856e-08 0.5 #
ellipse-curve $-1 -1 $-1 1.5 0.5 0.5 -0.7071067811865477948 0.7071067811865472397 0 -0.1499999999999999112 -0.1500000000000000222 0 0.7071067811865477948 I I #
point $-1 -1 $-1 1.393933982822018081 0.3939339828220178585 0.393933982822017803 #
point $-1 -1 $-1 1.393933982822018081 0.3939339828220178585 0.6060660171779821415 #
ellipse-curve $-1 -1 $-1 1.5 0.5 0.5 -0.7071067811865477948 0 0.7071067811865472397 -0.1499999999999999112 0 -0.1500000000000000222 0.7071067811865477948 I I #
coedge $-1 -1 $-1 $455 $296 $330 $412 reversed $228 $-1 #
coedge $-1 -1 $-1 $296 $455 $456 $457 reversed $228 $-1 #
coedge $-1 -1 $-1 $458 $459 $296 $374 forward $407 $-1 #
edge $-1 -1 $-1 $460 -1.25 $461 -0.25 $373 $462 forward @7 unknown #
ellipse-curve $-1 -1 $-1 1.5 0.5 0.5 -0.7071067811865477948 0 -0.7071067811865472397 0.1499999999999999112 0 -0.1500000000000000222 0.7071067811865477948 I I #
coedge $-1 -1 $-1 $376 $376 $299 $377 forward $463 $-1 #
edge $-1 -1 $-1 $464 -3.141592653589793116 $464 3.141592653589793116 $376 $465 forward @7 unknown #
loop $-1 -1 $-1 $-1 $466 $379 #
face $-1 -1 $-1 $467 $300 $3 $-1 $468 reversed single #
loop $-1 -1 $-1 $-1 $304 $429 #
vertex $-1 -1 $-1 $305 $469 #
ellipse-curve $-1 -1 $-1 1.5 1 0.5 -0 -1 -0 0.1499999999999999112 0 0 1 I I #
loop $-1 -1 $-1 $-1 $434 $241 #
loop $-1 -1 $-1 $470 $448 $307 #
cone-surface $-1 -1 $-1 0.5 0.5 0 0 0 1 0.1500000000000000222 0 0 1 I I 0 1 0.1500000000000000222 forward I I I I #
loop $-1 -1 $-1 $-1 $471 $242 #
coedge $-1 -1 $-1 $472 $473 $474 $475 reversed $308 $-1 #
coedge $-1 -1 $-1 $476 $477 $309 $389 forward $478 $-1 #
edge $-1 -1 $-1 $393 -1.25 $390 -0.25 $388 $479 forward @7 unknown #
vertex $-1 -1 $-1 $480 $481 #
straight-curve $-1 -1 $-1 1 1 1 0 1 0 I I #
coedge $-1 -1 $-1 $330 $311 $477 $482 reversed $256 $-1 #
vertex $-1 -1 $-1 $482 $483 #
straight-curve $-1 -1 $-1 1 1 0 0 1 0 I I #
point $-1 -1 $-1 1 2 0 #
coedge $-1 -1 $-1 $315 $411 $317 $399 forward $256 $-1 #
straight-curve $-1 -1 $-1 2.25 2 0 1 -0 0 I I #
coedge $-1 -1 $-1 $401 $317 $484 $485 reversed $319 $-1 #
edge $-1 -1 $-1 $486 0 $320 2 $396 $487 forward @7 unknown #
coedge $-1 -1 $-1 $318 $401 $488 $489 reversed $319 $-1 #
coedge $-1 -1 $-1 $400 $398 $414 $490 forward $319 $-1 #
point $-1 -1 $-1 0 2 0 #
coedge $-1 -1 $-1 $488 $491 $322 $404 forward $339 $-1 #
edge $-1 -1 $-1 $390 -0.25 $405 0.75 $403 $492 forward @7 unknown #
vertex $-1 -1 $-1 $489 $493 #
straight-curve $-1 -1 $-1 0 1 1 0 1 0 I I #
loop $-1 -1 $-1 $494 $415 $326 #
plane-surface $-1 -1 $-1 1.5 0 1.5 0 1 0 1 0 0 forward_v I I I I #
coedge $-1 -1 $-1 $495 $496 $413 $497 forward $327 $-1 #
coedge $-1 -1 $-1 $410 $410 $498 $499 forward $329 $-1 #
coedge $-1 -1 $-1 $396 $330 $459 $500 reversed $256 $-1 #
edge $-1 -1 $-1 $501 -1 $460 0 $330 $502 forward @7 unknown #
coedge $-1 -1 $-1 $503 $331 $409 $497 reversed $258 $-1 #
coedge $-1 -1 $-1 $331 $503 $401 $490 reversed $258 $-1 #
coedge $-1 -1 $-1 $484 $504 $331 $416 forward $407 $-1 #
edge $-1 -1 $-1 $505 -0.25 $506 0.75 $415 $507 forward @7 unknown #
coedge $-1 -1 $-1 $417 $417 $508 $509 forward $332 $-1 #
coedge $-1 -1 $-1 $335 $334 $510 $511 reversed $206 $-1 #
coedge $-1 -1 $-1 $512 $513 $334 $420 forward $514 $-1 #
edge $-1 -1 $-1 $515 -0.785398163397448279 $426 0.785398163397448279 $419 $516 forward @7 unknown #
coedge $-1 -1 $-1 $517 $518 $335 $422 forward $470 $-1 #
edge $-1 -1 $-1 $427 2.356194490192344837 $519 3.926990816987241395 $421 $520 forward @7 unknown #
coedge $-1 -1 $-1 $474 $336 $518 $521 reversed $425 $-1 #
coedge $-1 -1 $-1 $336 $474 $512 $522 reversed $425 $-1 #
loop $-1 -1 $-1 $523 $474 $467 #
vertex $-1 -1 $-1 $522 $524 #
vertex $-1 -1 $-1 $337 $525 #
ellipse-curve $-1 -1 $-1 0.5 0.5 0.5 0.7071067811865475727 0.7071067811865475727 -0 0.1500000000000000222 -0.1500000000000000222 0 0.7071067811865475727 I I #
face $-1 -1 $-1 $91 $478 $3 $-1 $340 forward single #
loop $-1 -1 $-1 $463 $456 $338 #
plane-surface $-1 -1 $-1 1 0 1 0 0 1 1 0 0 forward_v I I I I #
loop $-1 -1 $-1 $-1 $526 $266 #
coedge $-1 -1 $-1 $491 $488 $503 $527 forward $339 $-1 #
coedge $-1 -1 $-1 $434 $434 $341 $435 reversed $383 $-1 #
edge $-1 -1 $-1 $528 -3.141592653589793116 $528 3.141592653589793116 $341 $529 forward @7 unknown #
coedge $-1 -1 $-1 $436 $436 $342 $437 forward $530 $-1 #
edge $-1 -1 $-1 $531 -3.141592653589793116 $531 3.141592653589793116 $436 $532 forward @7 unknown #
coedge $-1 -1 $-1 $344 $343 $533 $534 forward $211 $-1 #
edge $-1 -1 $-1 $535 -0.78539816339744839 $353 0.78539816339744839 $347 $536 forward @7 unknown #
edge $-1 -1 $-1 $357 2.356194490192343505 $537 3.926990816987242727 $355 $538 forward @7 unknown #
ellipse-curve $-1 -1 $-1 0.5 0.5 1.5 -0 0.7071067811865475727 0.7071067811865475727 0 -0.1499999999999999112 0.1499999999999999112 0.7071067811865475727 I I #
coedge $-1 -1 $-1 $347 $346 $539 $540 forward $213 $-1 #
point $-1 -1 $-1 0.9999999403953534483 0.5 1.650000000000000133 #
point $-1 -1 $-1 0.3500000000000000888 0.5 2 #
point $-1 -1 $-1 0.6060660171779820304 0.3939339828220178585 1.606066017177982141 #
coedge $-1 -1 $-1 $356 $355 $541 $542 forward $306 $-1 #
point $-1 -1 $-1 0.3939339828220180251 0.3939339828220178585 1.606066017177982141 #
coedge $-1 -1 $-1 $541 $539 $359 $449 reversed $384 $-1 #
edge $-1 -1 $-1 $450 2.356194490192345281 $452 3.926990816987240951 $359 $543 forward @7 unknown #
vertex $-1 -1 $-1 $360 $544 #
ellipse-curve $-1 -1 $-1 0.5 0.4999999999999999445 1.5 0.7071067811865477948 0.7071067811865472397 -0 0.1500000000000000222 -0.1500000000000001332 0 0.7071067811865472397 I I #
vertex $-1 -1 $-1 $449 $545 #
ellipse-curve $-1 -1 $-1 0.5 0.4999999999999999445 1.5 -0.7071067811865477948 0.7071067811865472397 -0 0.1500000000000000222 0.1500000000000001332 0 0.7071067811865472397 I I #
coedge $-1 -1 $-1 $454 $454 $526 $546 reversed $362 $-1 #
coedge $-1 -1 $-1 $372 $371 $547 $548 reversed $228 $-1 #
coedge $-1 -1 $-1 $549 $550 $372 $457 forward $430 $-1 #
edge $-1 -1 $-1 $461 0 $551 1 $456 $552 forward @7 unknown #
coedge $-1 -1 $-1 $504 $373 $550 $553 reversed $407 $-1 #
coedge $-1 -1 $-1 $373 $484 $411 $500 forward $407 $-1 #
vertex $-1 -1 $-1 $412 $554 #
vertex $-1 -1 $-1 $457 $555 #
straight-curve $-1 -1 $-1 2 0 1.25 0 0 1 I I #
loop $-1 -1 $-1 $-1 $376 $338 #
vertex $-1 -1 $-1 $377 $556 #
ellipse-curve $-1 -1 $-1 1.5 0.5 1 -0 -0 -1 0.1499999999999999112 0 0 1 I I #
coedge $-1 -1 $-1 $557 $558 $559 $560 forward $378 $-1 #
face $-1 -1 $-1 $561 $425 $3 $-1 $468 reversed single #
cone-surface $-1 -1 $-1 0 0.5 0.5 1 0 0 0 0 -0.1500000000000000222 1 I I 0 1 0.1500000000000000222 forward I I I I #
point $-1 -1 $-1 1.350000000000000089 0.999999940395357001 0.5 #
loop $-1 -1 $-1 $-1 $562 $307 #
coedge $-1 -1 $-1 $471 $471 $563 $564 reversed $386 $-1 #
coedge $-1 -1 $-1 $559 $387 $562 $565 reversed $308 $-1 #
coedge $-1 -1 $-1 $387 $559 $566 $567 reversed $308 $-1 #
coedge $-1 -1 $-1 $424 $423 $387 $475 forward $425 $-1 #
edge $-1 -1 $-1 $568 2.356194490192345281 $569 3.926990816987240507 $474 $570 forward @7 unknown #
coedge $-1 -1 $-1 $547 $388 $549 $571 forward $478 $-1 #
coedge $-1 -1 $-1 $388 $547 $392 $482 forward $478 $-1 #
loop $-1 -1 $-1 $380 $547 $429 #
straight-curve $-1 -1 $-1 1 1 1.25 0 0 1 I I #
edge $-1 -1 $-1 $572 0 $390 1 $573 $574 forward @7 unknown #
point $-1 -1 $-1 1 1 1 #
edge $-1 -1 $-1 $501 -2 $393 -1 $392 $575 forward @7 unknown #
point $-1 -1 $-1 1 1 0 #
coedge $-1 -1 $-1 $459 $415 $398 $485 forward $407 $-1 #
edge $-1 -1 $-1 $506 1 $486 3 $398 $576 forward @7 unknown #
vertex $-1 -1 $-1 $500 $577 #
straight-curve $-1 -1 $-1 0 0 0 0 1 0 I I #
coedge $-1 -1 $-1 $433 $403 $400 $489 forward $339 $-1 #
edge $-1 -1 $-1 $405 -2 $578 -1 $400 $579 forward @7 unknown #
edge $-1 -1 $-1 $506 0 $578 1 $401 $580 forward @7 unknown #
coedge $-1 -1 $-1 $403 $433 $496 $581 forward $339 $-1 #
straight-curve $-1 -1 $-1 0.75 1 1 -1 0 0 I I #
point $-1 -1 $-1 0 1 1 #
loop $-1 -1 $-1 $530 $563 $326 #
coedge $-1 -1 $-1 $573 $409 $504 $582 forward $327 $-1 #
coedge $-1 -1 $-1 $409 $573 $491 $581 reversed $327 $-1 #
edge $-1 -1 $-1 $583 -1 $505 0 $409 $584 forward @7 unknown #
coedge $-1 -1 $-1 $498 $498 $410 $499 reversed $585 $-1 #
edge $-1 -1 $-1 $586 -3.141592653589793116 $586 3.141592653589793116 $410 $587 forward @7 unknown #
edge $-1 -1 $-1 $486 0 $460 2 $411 $588 forward @7 unknown #
vertex $-1 -1 $-1 $482 $589 #
straight-curve $-1 -1 $-1 2 0 0 0 -1 0 I I #
coedge $-1 -1 $-1 $414 $413 $433 $527 reversed $258 $-1 #
coedge $-1 -1 $-1 $415 $458 $495 $582 reversed $407 $-1 #
vertex $-1 -1 $-1 $582 $590 #
vertex $-1 -1 $-1 $485 $591 #
straight-curve $-1 -1 $-1 0.75 0 2 -1 0 0 I I #
coedge $-1 -1 $-1 $508 $508 $417 $509 reversed $523 $-1 #
edge $-1 -1 $-1 $592 -3.141592653589793116 $592 3.141592653589793116 $417 $593 forward @7 unknown #
coedge $-1 -1 $-1 $558 $557 $418 $511 forward $378 $-1 #
edge $-1 -1 $-1 $519 -0.785398163397448279 $515 0.785398163397448279 $510 $594 forward @7 unknown #
coedge $-1 -1 $-1 $566 $419 $424 $522 forward $514 $-1 #
coedge $-1 -1 $-1 $419 $566 $558 $595 forward $514 $-1 #
loop $-1 -1 $-1 $585 $566 $561 #
vertex $-1 -1 $-1 $420 $596 #
ellipse-curve $-1 -1 $-1 0.5 0.5 0.5 0 0.7071067811865475727 0.7071067811865475727 0 0.1500000000000000222 -0.1500000000000000222 0.7071067811865475727 I I #
coedge $-1 -1 $-1 $562 $421 $557 $597 forward $470 $-1 #
coedge $-1 -1 $-1 $421 $562 $423 $521 forward $470 $-1 #
vertex $-1 -1 $-1 $597 $598 #
ellipse-curve $-1 -1 $-1 0.5 0.5 0.5 0 0.7071067811865475727 -0.7071067811865475727 0 -0.1500000000000000222 -0.1500000000000000222 0.7071067811865475727 I I #
edge $-1 -1 $-1 $568 2.356194490192343949 $427 3.926990816987241395 $518 $599 forward @7 unknown #
edge $-1 -1 $-1 $426 -0.785398163397448279 $569 0.785398163397448279 $512 $600 forward @7 unknown #
loop $-1 -1 $-1 $-1 $508 $467 #
point $-1 -1 $-1 0.3939339828220178585 0.6060660171779821415 0.3939339828220178585 #
point $-1 -1 $-1 0.3939339828220178585 0.6060660171779821415 0.6060660171779821415 #
coedge $-1 -1 $-1 $526 $526 $454 $546 forward $432 $-1 #
edge $-1 -1 $-1 $578 -0.75 $583 0.25 $433 $601 forward @7 unknown #
vertex $-1 -1 $-1 $435 $602 #
ellipse-curve $-1 -1 $-1 0 0.5 1.5 1 -0 -0 0 0 -0.1500000000000001332 1 I I #
loop $-1 -1 $-1 $285 $436 $326 #
vertex $-1 -1 $-1 $437 $603 #
ellipse-curve $-1 -1 $-1 0.5 0 1.5 0 1 0 0.1500000000000000222 0 0 1 I I #
coedge $-1 -1 $-1 $539 $541 $438 $534 reversed $384 $-1 #
edge $-1 -1 $-1 $535 -0.7853981633974478349 $537 0.7853981633974478349 $438 $604 forward @7 unknown #
vertex $-1 -1 $-1 $439 $605 #
ellipse-curve $-1 -1 $-1 0.5 0.4999999999999999445 1.5 -0.7071067811865477948 -0.7071067811865472397 0 0.1500000000000000222 -0.1500000000000001332 0 0.7071067811865472397 I I #
vertex $-1 -1 $-1 $542 $606 #
ellipse-curve $-1 -1 $-1 0.5 0.4999999999999999445 1.5 0.7071067811865477948 -0.7071067811865472397 0 0.1500000000000000222 0.1500000000000001332 0 0.7071067811865472397 I I #
coedge $-1 -1 $-1 $448 $533 $442 $540 reversed $384 $-1 #
edge $-1 -1 $-1 $452 -0.785398163397448279 $535 0.7853981633974488341 $442 $607 forward @7 unknown #
coedge $-1 -1 $-1 $533 $448 $446 $542 reversed $384 $-1 #
edge $-1 -1 $-1 $537 2.356194490192344393 $450 3.926990816987241839 $446 $608 forward @7 unknown #
ellipse-curve $-1 -1 $-1 0.5 0.5 1.5 0 -0.7071067811865475727 -0.7071067811865475727 0 -0.1499999999999999112 0.1499999999999999112 0.7071067811865475727 I I #
point $-1 -1 $-1 0.3939339828220179696 0.6060660171779820304 1.393933982822017859 #
point $-1 -1 $-1 0.6060660171779820304 0.6060660171779820304 1.393933982822017859 #
edge $-1 -1 $-1 $609 -3.141592653589793116 $609 3.141592653589793116 $526 $610 forward @7 unknown #
coedge $-1 -1 $-1 $477 $476 $455 $548 forward $478 $-1 #
edge $-1 -1 $-1 $551 0.25 $501 1.25 $547 $611 forward @7 unknown #
coedge $-1 -1 $-1 $612 $456 $476 $571 reversed $430 $-1 #
coedge $-1 -1 $-1 $456 $612 $458 $553 forward $430 $-1 #
vertex $-1 -1 $-1 $548 $613 #
straight-curve $-1 -1 $-1 2 0 1 0 1 0 I I #
edge $-1 -1 $-1 $572 0 $461 1 $550 $614 forward @7 unknown #
point $-1 -1 $-1 2 0 0 #
point $-1 -1 $-1 2 0 1 #
point $-1 -1 $-1 1.350000000000000089 0.5 1 #
coedge $-1 -1 $-1 $510 $466 $517 $597 reversed $378 $-1 #
coedge $-1 -1 $-1 $466 $510 $513 $595 reversed $378 $-1 #
coedge $-1 -1 $-1 $473 $472 $466 $560 reversed $308 $-1 #
edge $-1 -1 $-1 $615 -0.785398163397448279 $616 0.785398163397448279 $466 $617 forward @7 unknown #
face $-1 -1 $-1 $363 $514 $3 $-1 $385 reversed single #
coedge $-1 -1 $-1 $518 $517 $472 $565 forward $470 $-1 #
coedge $-1 -1 $-1 $563 $563 $471 $564 forward $494 $-1 #
edge $-1 -1 $-1 $618 -3.141592653589793116 $618 3.141592653589793116 $563 $619 forward @7 unknown #
edge $-1 -1 $-1 $616 2.356194490192345281 $568 3.926990816987240951 $562 $620 forward @7 unknown #
coedge $-1 -1 $-1 $513 $512 $473 $567 forward $514 $-1 #
edge $-1 -1 $-1 $569 -0.785398163397448279 $615 0.785398163397448279 $566 $621 forward @7 unknown #
vertex $-1 -1 $-1 $521 $622 #
vertex $-1 -1 $-1 $475 $623 #
ellipse-curve $-1 -1 $-1 0.5 0.5 0.5 0.7071067811865475727 -0.7071067811865475727 -0 0.1500000000000000222 0.1500000000000000222 0 0.7071067811865475727 I I #
edge $-1 -1 $-1 $390 0 $551 1 $549 $624 forward @7 unknown #
vertex $-1 -1 $-1 $582 $625 #
coedge $-1 -1 $-1 $496 $495 $612 $480 forward $327 $-1 #
straight-curve $-1 -1 $-1 1 0 1 0 1 0 I I #
straight-curve $-1 -1 $-1 0 1 0 -1 -0 -0 I I #
straight-curve $-1 -1 $-1 0 0 3 0 0 -1 F 0 F 3 #
point $-1 -1 $-1 0 0 0 #
vertex $-1 -1 $-1 $527 $626 #
straight-curve $-1 -1 $-1 0 1 3 0 0 1 I I #
straight-curve $-1 -1 $-1 0 0 2 0 1 -0 I I #
edge $-1 -1 $-1 $583 1 $390 2 $496 $627 forward @7 unknown #
edge $-1 -1 $-1 $505 1 $572 2 $495 $628 forward @7 unknown #
vertex $-1 -1 $-1 $581 $629 #
straight-curve $-1 -1 $-1 1 0 2 -0 -1 0 I I #
loop $-1 -1 $-1 $-1 $498 $561 #
vertex $-1 -1 $-1 $499 $630 #
ellipse-curve $-1 -1 $-1 0.5 0.5 0 -0 -0 1 0.1500000000000000222 0 0 1 I I #
straight-curve $-1 -1 $-1 0 0 0 1 0 0 F 0 F 3 #
point $-1 -1 $-1 2 1 0 #
point $-1 -1 $-1 1 0 2 #
point $-1 -1 $-1 0 0 2 #
vertex $-1 -1 $-1 $509 $631 #
ellipse-curve $-1 -1 $-1 0 0.5 0.5 1 -0 -0 0 0 -0.1500000000000000222 1 I I #
ellipse-curve $-1 -1 $-1 0.5 0.5 0.5 -0.7071067811865475727 0.7071067811865475727 0 0.1500000000000000222 0.1500000000000000222 0 0.7071067811865475727 I I #
edge $-1 -1 $-1 $615 -0.785398163397448279 $515 0.785398163397448279 $513 $632 forward @7 unknown #
point $-1 -1 $-1 0.6060660171779821415 0.6060660171779821415 0.3939339828220178585 #
edge $-1 -1 $-1 $519 2.356194490192343949 $616 3.926990816987241395 $517 $633 forward @7 unknown #
point $-1 -1 $-1 0.6060660171779821415 0.6060660171779821415 0.6060660171779821415 #
ellipse-curve $-1 -1 $-1 0.5 0.5 0.5 -0.7071067811865475727 0 -0.7071067811865475727 0.1500000000000000222 0 -0.1500000000000000222 0.7071067811865475727 I I #
ellipse-curve $-1 -1 $-1 0.5 0.5 0.5 -0.7071067811865475727 -0 0.7071067811865475727 -0.1500000000000000222 0 -0.1500000000000000222 0.7071067811865475727 I I #
straight-curve $-1 -1 $-1 0.75 1 2 1 0 0 I I #
point $-1 -1 $-1 0 0.5 1.650000000000000133 #
point $-1 -1 $-1 0.3499999999999999778 -5.96046429990337856e-08 1.5 #
ellipse-curve $-1 -1 $-1 0.5 0.5 1.5 0 0.7071067811865475727 -0.7071067811865475727 0 -0.1499999999999999112 -0.1499999999999999112 0.7071067811865475727 I I #
point $-1 -1 $-1 0.6060660171779820304 0.3939339828220178585 1.393933982822017859 #
point $-1 -1 $-1 0.3939339828220180251 0.3939339828220178585 1.393933982822017859 #
ellipse-curve $-1 -1 $-1 0.5 0.5 1.5 -0.7071067811865480168 -0 -0.7071067811865471286 0.1499999999999999112 0 -0.1500000000000001055 0.7071067811865471286 I I #
ellipse-curve $-1 -1 $-1 0.5 0.5 1.5 0.7071067811865480168 0 -0.7071067811865471286 0.1499999999999999112 0 0.1500000000000001055 0.7071067811865471286 I I #
vertex $-1 -1 $-1 $546 $634 #
ellipse-curve $-1 -1 $-1 0.5 1 1.5 -0 -1 -0 0.1500000000000000222 0 0 1 I I #
straight-curve $-1 -1 $-1 2 1 1.25 0 0 -1 I I #
coedge $-1 -1 $-1 $550 $549 $573 $480 reversed $430 $-1 #
point $-1 -1 $-1 2 1 1 #
straight-curve $-1 -1 $-1 1 0 1 1 0 0 F 0 F 2 #
vertex $-1 -1 $-1 $595 $635 #
vertex $-1 -1 $-1 $565 $636 #
ellipse-curve $-1 -1 $-1 0.5 0.5 0.5 -0.7071067811865475727 -0.7071067811865475727 0 0.1500000000000000222 -0.1500000000000000222 0 0.7071067811865475727 I I #
vertex $-1 -1 $-1 $564 $637 #
ellipse-curve $-1 -1 $-1 0.5 0 0.5 0 1 0 0.1500000000000000222 0 0 1 I I #
ellipse-curve $-1 -1 $-1 0.5 0.5 0.5 -0 -0.7071067811865475727 -0.7071067811865475727 0 0.1500000000000000222 -0.1500000000000000222 0.7071067811865475727 I I #
ellipse-curve $-1 -1 $-1 0.5 0.5 0.5 -0 -0.7071067811865475727 0.7071067811865475727 0 -0.1500000000000000222 -0.1500000000000000222 0.7071067811865475727 I I #
point $-1 -1 $-1 0.3939339828220178585 0.393933982822017803 0.6060660171779821415 #
point $-1 -1 $-1 0.3939339828220178585 0.393933982822017803 0.3939339828220178585 #
straight-curve $-1 -1 $-1 1 1 1 1 0 0 I I #
point $-1 -1 $-1 1 0 1 #
point $-1 -1 $-1 0 1 2 #
straight-curve $-1 -1 $-1 1 1 3 0 0 -1 I I #
straight-curve $-1 -1 $-1 1 0 3 0 0 -1 F 0 F 2 #
point $-1 -1 $-1 1 1 2 #
point $-1 -1 $-1 0.3499999999999999778 0.5 0 #
point $-1 -1 $-1 0 0.5 0.6500000000000000222 #
ellipse-curve $-1 -1 $-1 0.5 0.5 0.5 0.7071067811865475727 -0 0.7071067811865475727 0.1500000000000000222 0 -0.1500000000000000222 0.7071067811865475727 I I #
ellipse-curve $-1 -1 $-1 0.5 0.5 0.5 0.7071067811865475727 0 -0.7071067811865475727 -0.1500000000000000222 0 -0.1500000000000000222 0.7071067811865475727 I I #
point $-1 -1 $-1 0.3499999999999999778 0.999999940395357001 1.5 #
point $-1 -1 $-1 0.6060660171779821415 0.393933982822017803 0.3939339828220178585 #
point $-1 -1 $-1 0.6060660171779821415 0.393933982822017803 0.6060660171779821415 #
point $-1 -1 $-1 0.3499999999999999778 0 0.5 #
End-of-ACIS-data 